<svg xmlns="http://www.w3.org/2000/svg" viewBox="0 0 900 520" width="900" height="520" font-family="-apple-system, BlinkMacSystemFont, 'Segoe UI', Helvetica, Arial, sans-serif">
<rect x="0.0" y="0.0" width="900.0" height="520.0" rx="10" fill="#fcfcfb" opacity="1"/>
<text x="62.0" y="36.0" fill="#0b0b0b" font-family="-apple-system, BlinkMacSystemFont, 'Segoe UI', Helvetica, Arial, sans-serif" font-size="17" font-weight="600" text-anchor="start">bb/100 against Slumbot</text>
<text x="62.0" y="57.0" fill="#8a8983" font-family="-apple-system, BlinkMacSystemFont, 'Segoe UI', Helvetica, Arial, sans-serif" font-size="12" font-weight="400" text-anchor="start">running mean, aligned on the last hand of each run · 1.9 M hands</text>
<g transform="translate(62.0,80.0)" opacity="1"><path d="M0,-6.4 L0,-2.6 M0,-2.6 L-4.1,1.2 M0,-2.6 L4.1,1.2" fill="none" stroke="#52514e" stroke-linecap="round" stroke-linejoin="round" stroke-width="1.5"/><path d="M-5.8,4.4 L5.8,4.4" fill="none" stroke="#52514e" stroke-linecap="round" stroke-linejoin="round" stroke-width="1.5"/></g>
<text x="75.0" y="84.0" fill="#52514e" font-family="-apple-system, BlinkMacSystemFont, 'Segoe UI', Helvetica, Arial, sans-serif" font-size="11.5" font-weight="400" text-anchor="start">depth-limited subgame</text>
<g transform="translate(233.3,80.0)" opacity="1"><path d="M-5.8,-4.6 L5.8,-4.6" fill="none" stroke="#52514e" stroke-linecap="round" stroke-linejoin="round" stroke-width="1.5"/><path d="M-4.1,-4.4 L-4.1,4.6 M0,-4.4 L0,4.6 M4.1,-4.4 L4.1,4.6" fill="none" stroke="#52514e" stroke-linecap="round" stroke-linejoin="round" stroke-width="1.5"/></g>
<text x="246.3" y="84.0" fill="#52514e" font-family="-apple-system, BlinkMacSystemFont, 'Segoe UI', Helvetica, Arial, sans-serif" font-size="11.5" font-weight="400" text-anchor="start">safe multi-world subgame</text>
<g transform="translate(423.5,80.0)" opacity="1"><path d="M-4.1,4.6 L-4.1,1.0" fill="none" stroke="#52514e" stroke-linecap="round" stroke-linejoin="round" stroke-width="1.5"/><path d="M0,4.6 L0,-4.6" fill="none" stroke="#52514e" stroke-linecap="round" stroke-linejoin="round" stroke-width="1.5"/><path d="M4.1,4.6 L4.1,1.0" fill="none" stroke="#52514e" stroke-linecap="round" stroke-linejoin="round" stroke-width="1.5"/><circle cx="0" cy="-6.4" r="1.6" fill="#52514e"/></g>
<text x="436.5" y="84.0" fill="#52514e" font-family="-apple-system, BlinkMacSystemFont, 'Segoe UI', Helvetica, Arial, sans-serif" font-size="11.5" font-weight="400" text-anchor="start">zero-temperature argmax</text>
<line x1="62.0" y1="464.0" x2="794.0" y2="464.0" stroke="#e8e7e3" stroke-width="1" opacity="1"/>
<text x="52.0" y="468.0" fill="#8a8983" font-family="ui-monospace, SFMono-Regular, Menlo, monospace" font-size="11" font-weight="400" text-anchor="end">−105</text>
<line x1="62.0" y1="413.1" x2="794.0" y2="413.1" stroke="#e8e7e3" stroke-width="1" opacity="1"/>
<text x="52.0" y="417.1" fill="#8a8983" font-family="ui-monospace, SFMono-Regular, Menlo, monospace" font-size="11" font-weight="400" text-anchor="end">−90</text>
<line x1="62.0" y1="362.3" x2="794.0" y2="362.3" stroke="#e8e7e3" stroke-width="1" opacity="1"/>
<text x="52.0" y="366.3" fill="#8a8983" font-family="ui-monospace, SFMono-Regular, Menlo, monospace" font-size="11" font-weight="400" text-anchor="end">−75</text>
<line x1="62.0" y1="311.4" x2="794.0" y2="311.4" stroke="#e8e7e3" stroke-width="1" opacity="1"/>
<text x="52.0" y="315.4" fill="#8a8983" font-family="ui-monospace, SFMono-Regular, Menlo, monospace" font-size="11" font-weight="400" text-anchor="end">−60</text>
<line x1="62.0" y1="260.6" x2="794.0" y2="260.6" stroke="#e8e7e3" stroke-width="1" opacity="1"/>
<text x="52.0" y="264.6" fill="#8a8983" font-family="ui-monospace, SFMono-Regular, Menlo, monospace" font-size="11" font-weight="400" text-anchor="end">−45</text>
<line x1="62.0" y1="209.7" x2="794.0" y2="209.7" stroke="#e8e7e3" stroke-width="1" opacity="1"/>
<text x="52.0" y="213.7" fill="#8a8983" font-family="ui-monospace, SFMono-Regular, Menlo, monospace" font-size="11" font-weight="400" text-anchor="end">−30</text>
<line x1="62.0" y1="158.9" x2="794.0" y2="158.9" stroke="#e8e7e3" stroke-width="1" opacity="1"/>
<text x="52.0" y="162.9" fill="#8a8983" font-family="ui-monospace, SFMono-Regular, Menlo, monospace" font-size="11" font-weight="400" text-anchor="end">−15</text>
<line x1="62.0" y1="108.0" x2="794.0" y2="108.0" stroke="#e8e7e3" stroke-width="1" opacity="1"/>
<text x="52.0" y="112.0" fill="#8a8983" font-family="ui-monospace, SFMono-Regular, Menlo, monospace" font-size="11" font-weight="400" text-anchor="end">0</text>
<line x1="117.7" y1="108.0" x2="117.7" y2="464.0" stroke="#e8e7e3" stroke-width="1" opacity="1"/>
<text x="117.7" y="484.0" fill="#8a8983" font-family="ui-monospace, SFMono-Regular, Menlo, monospace" font-size="11" font-weight="400" text-anchor="middle">300 K</text>
<line x1="248.0" y1="108.0" x2="248.0" y2="464.0" stroke="#e8e7e3" stroke-width="1" opacity="1"/>
<text x="248.0" y="484.0" fill="#8a8983" font-family="ui-monospace, SFMono-Regular, Menlo, monospace" font-size="11" font-weight="400" text-anchor="middle">100 K</text>
<line x1="390.7" y1="108.0" x2="390.7" y2="464.0" stroke="#e8e7e3" stroke-width="1" opacity="1"/>
<text x="390.7" y="484.0" fill="#8a8983" font-family="ui-monospace, SFMono-Regular, Menlo, monospace" font-size="11" font-weight="400" text-anchor="middle">30 K</text>
<line x1="521.0" y1="108.0" x2="521.0" y2="464.0" stroke="#e8e7e3" stroke-width="1" opacity="1"/>
<text x="521.0" y="484.0" fill="#8a8983" font-family="ui-monospace, SFMono-Regular, Menlo, monospace" font-size="11" font-weight="400" text-anchor="middle">10 K</text>
<line x1="663.7" y1="108.0" x2="663.7" y2="464.0" stroke="#e8e7e3" stroke-width="1" opacity="1"/>
<text x="663.7" y="484.0" fill="#8a8983" font-family="ui-monospace, SFMono-Regular, Menlo, monospace" font-size="11" font-weight="400" text-anchor="middle">3 K</text>
<line x1="794.0" y1="108.0" x2="794.0" y2="464.0" stroke="#e8e7e3" stroke-width="1" opacity="1"/>
<text x="794.0" y="484.0" fill="#8a8983" font-family="ui-monospace, SFMono-Regular, Menlo, monospace" font-size="11" font-weight="400" text-anchor="middle">1 K</text>
<text x="428.0" y="506.0" fill="#52514e" font-family="-apple-system, BlinkMacSystemFont, 'Segoe UI', Helvetica, Arial, sans-serif" font-size="12" font-weight="400" text-anchor="middle">hands remaining  →  end of run</text>
<line x1="62.0" y1="108.0" x2="794.0" y2="108.0" stroke="#c9c8c2" stroke-width="1" opacity="1"/>
<text x="70.0" y="123.0" fill="#8a8983" font-family="-apple-system, BlinkMacSystemFont, 'Segoe UI', Helvetica, Arial, sans-serif" font-size="11" font-weight="400" text-anchor="start">break-even</text>
<path d="M288.0,294.8 L289.6,319.8 L291.1,341.9 L292.8,337.2 L294.4,343.5 L295.9,343.2 L297.4,342.6 L299.0,340.6 L300.7,362.0 L302.2,355.7 L303.8,348.5 L305.4,356.5 L306.9,384.0 L308.5,376.9 L310.1,367.3 L311.7,365.5 L313.3,360.1 L314.8,349.5 L316.5,343.4 L317.9,331.9 L319.7,331.0 L321.2,335.0 L322.8,340.0 L324.3,339.2 L325.9,341.8 L327.5,332.7 L329.2,331.5 L330.8,330.5 L332.3,333.9 L334.0,335.0 L335.4,341.4 L336.9,341.7 L338.7,342.9 L340.2,348.1 L341.8,348.2 L343.4,353.3 L345.0,353.5 L346.6,353.8 L348.2,346.7 L349.6,345.7 L351.3,349.9 L352.8,352.8 L354.5,342.8 L356.0,341.3 L357.7,339.9 L359.2,336.9 L360.8,332.5 L362.3,326.6 L363.9,322.0 L365.5,324.1 L367.1,327.5 L368.7,328.3 L370.3,330.3 L372.0,330.4 L373.4,328.8 L375.1,325.3 L376.5,325.1 L378.3,330.9 L379.7,339.2 L381.5,343.4 L383.0,345.9 L384.5,348.4 L386.0,350.7 L387.9,349.6 L389.4,356.3 L391.0,358.3 L392.6,356.8 L394.2,357.1 L395.5,358.8 L397.1,357.6 L398.8,355.5 L400.5,356.5 L401.8,357.7 L403.5,355.7 L405.3,364.1 L406.7,362.4 L408.5,357.3 L409.9,357.8 L411.3,354.3 L413.2,353.8 L414.6,357.3 L416.1,357.6 L418.0,359.6 L419.5,355.0 L421.1,354.1 L422.6,360.4 L424.2,360.5 L425.8,357.8 L427.4,362.9 L429.0,362.0 L430.6,366.9 L432.3,367.0 L433.4,369.1 L435.1,365.7 L436.9,365.4 L438.6,365.2 L439.8,364.4 L441.6,366.3 L443.5,366.1 L444.7,366.4 L446.6,366.7 L447.9,365.7 L449.8,364.4 L451.1,364.1 L452.4,363.2 L454.5,364.6 L455.8,366.2 L457.2,364.5 L459.3,361.3 L460.7,361.3 L462.1,361.0 L463.6,365.7 L465.1,364.9 L467.3,368.2 L468.8,367.8 L470.4,369.6 L471.9,368.1 L473.5,369.4 L475.1,365.9 L476.7,366.8 L478.4,364.0 L480.0,366.9 L480.9,367.6 L482.6,368.8 L484.3,369.1 L486.0,368.3 L487.8,369.2 L489.6,367.4 L490.5,366.3 L492.4,365.8 L494.3,365.2 L495.2,364.3 L497.1,364.6 L499.1,365.2 L500.1,365.3 L502.1,362.5 L503.1,363.1 L505.2,360.9 L506.2,361.6 L508.3,363.1 L509.4,364.2 L511.6,362.5 L512.7,363.8 L514.9,365.6 L516.0,363.2 L518.3,364.0 L519.5,364.4 L520.7,364.1 L523.0,368.2 L524.3,367.8 L525.5,368.4 L526.7,366.7 L529.2,368.6 L530.5,367.8 L531.8,365.0 L533.1,365.6 L535.8,364.6 L537.1,363.0 L538.5,363.0 L539.9,365.9 L541.3,365.1 L542.7,364.8 L544.1,365.6 L547.0,364.4 L548.5,365.9 L550.0,367.2 L551.6,368.0 L553.1,366.7 L554.7,365.3 L556.2,366.7 L557.9,367.0 L559.5,366.7 L561.1,366.6 L562.8,366.9 L564.5,366.2 L566.2,366.1 L568.0,367.6 L569.8,367.1 L571.6,366.8 L573.4,367.0 L575.2,364.2 L577.1,364.1 L579.1,363.3 L581.0,364.0 L583.0,365.0 L585.0,364.3 L587.1,362.2 L589.1,362.9 L591.3,362.9 L593.4,361.5 L595.6,362.0 L597.9,363.0 L600.2,363.2 L602.5,362.7 L604.9,365.0 L607.3,364.6 L609.8,366.4 L612.3,366.2 L614.9,365.0 L617.6,364.7 L620.3,365.8 L623.1,365.2 L625.9,365.3 L628.8,363.8 L631.8,364.6 L634.8,365.5 L638.0,365.4 L641.2,365.1 L644.5,366.1 L647.9,366.3 L651.4,367.4 L655.1,367.1 L658.8,366.9 L662.6,367.7 L666.6,367.1 L670.7,367.8 L675.0,369.2 L679.4,368.4 L684.0,367.6 L688.8,368.6 L693.8,368.5 L699.0,370.4 L704.5,369.6 L710.2,369.8 L716.2,369.1 L722.5,369.1 L729.1,367.8 L736.2,367.9 L743.7,368.6 L751.8,368.6 L760.4,369.7 L769.6,370.4 L779.7,370.0 L790.7,371.6 L794.0,371.6" fill="none" stroke="#eb6834" stroke-width="1.4" stroke-linejoin="round" stroke-linecap="round" opacity="0.45"/>
<circle cx="288.0" cy="294.8" r="4.6" fill="#eb6834"/>
<circle cx="288.0" cy="294.8" r="2.6" fill="#fcfcfb"/>
<path d="M297.1,128.7 L298.6,139.3 L300.2,152.8 L301.7,147.2 L303.2,158.7 L304.7,165.3 L306.5,160.5 L307.8,163.7 L309.4,162.5 L311.0,170.1 L312.6,180.9 L314.1,184.4 L315.8,172.5 L317.2,164.4 L318.7,156.9 L320.5,164.4 L322.0,170.0 L323.6,162.2 L324.9,159.6 L326.5,168.2 L328.1,169.6 L329.8,168.3 L331.2,178.4 L332.9,170.5 L334.4,175.4 L335.8,173.7 L337.3,177.6 L339.1,181.3 L340.7,181.7 L342.2,184.6 L343.8,182.2 L345.2,183.5 L346.8,185.0 L348.4,181.6 L349.8,185.2 L351.5,187.4 L352.9,185.6 L354.7,185.5 L356.1,184.2 L357.6,181.6 L359.1,184.9 L360.7,183.8 L362.2,191.5 L363.8,186.3 L365.4,184.8 L367.0,188.2 L368.6,190.5 L370.2,188.8 L371.6,186.2 L373.3,185.5 L374.6,183.3 L376.4,184.0 L377.8,185.5 L379.6,181.0 L381.0,178.5 L382.5,175.4 L384.0,175.8 L385.8,177.6 L387.4,176.6 L388.9,176.1 L390.5,177.9 L392.1,179.7 L393.3,180.1 L394.9,182.1 L396.6,180.5 L398.2,174.3 L399.5,170.8 L401.2,173.0 L403.0,178.6 L404.3,183.3 L406.1,180.8 L407.4,182.1 L409.3,177.5 L410.6,179.2 L412.1,178.7 L413.5,179.4 L415.4,182.4 L416.9,180.7 L418.4,179.0 L419.9,179.9 L421.4,181.0 L423.0,181.4 L424.5,183.0 L426.1,186.6 L427.7,189.2 L429.3,189.1 L431.0,187.6 L432.1,188.6 L433.8,188.6 L435.5,187.8 L437.3,187.9 L438.4,184.2 L440.2,182.0 L441.4,180.0 L443.3,182.5 L445.1,183.7 L446.4,182.3 L447.7,183.4 L449.6,184.8 L450.9,185.6 L452.9,184.2 L454.2,182.6 L455.6,185.0 L457.0,183.8 L459.0,183.3 L460.5,183.4 L461.9,183.0 L463.3,182.4 L464.8,180.1 L466.3,179.0 L468.6,177.8 L470.1,178.3 L471.6,177.9 L473.2,178.3 L474.8,179.4 L475.6,181.4 L477.2,181.4 L478.9,183.9 L480.6,183.0 L482.3,180.2 L484.0,182.7 L485.7,183.3 L486.6,184.1 L488.4,184.1 L490.2,184.7 L491.2,183.6 L493.0,182.1 L494.9,182.3 L495.9,181.8 L497.8,181.1 L499.8,181.0 L500.7,181.3 L502.8,181.4 L503.8,184.2 L505.9,185.0 L506.9,185.9 L509.0,185.3 L510.1,185.1 L512.3,184.2 L513.4,185.4 L514.5,185.7 L516.8,186.5 L517.9,186.7 L519.1,186.1 L521.4,187.8 L522.6,187.5 L523.8,186.7 L526.3,186.9 L527.5,186.9 L528.8,189.9 L530.1,189.8 L532.7,189.1 L534.0,189.3 L535.3,189.6 L536.7,190.0 L538.0,190.6 L539.4,191.8 L542.2,189.7 L543.6,189.2 L545.1,188.3 L546.5,187.1 L548.0,188.7 L549.5,189.3 L551.0,188.0 L552.6,187.8 L554.1,189.5 L555.7,190.1 L557.3,190.1 L558.9,189.3 L560.6,189.1 L562.2,189.1 L563.9,189.4 L565.6,188.2 L567.4,188.3 L569.1,189.2 L570.9,188.4 L572.8,187.0 L574.6,187.7 L576.5,186.6 L578.4,188.5 L580.3,188.8 L582.3,189.8 L584.3,188.9 L586.4,189.9 L588.4,190.0 L590.5,190.7 L592.7,189.8 L594.9,191.0 L597.1,190.4 L599.4,190.4 L601.7,190.9 L604.1,191.1 L606.5,191.9 L609.0,192.8 L611.5,193.9 L614.0,194.1 L616.7,193.9 L619.4,194.6 L622.1,194.3 L624.9,195.0 L627.8,194.2 L630.8,193.6 L633.8,194.1 L636.9,191.6 L640.1,191.7 L643.4,191.0 L646.8,192.3 L650.2,191.8 L653.8,192.6 L657.5,193.4 L661.3,195.0 L665.3,195.7 L669.3,195.5 L673.5,195.5 L677.9,194.6 L682.5,194.8 L687.2,192.9 L692.1,192.3 L697.2,192.6 L702.6,191.8 L708.2,191.3 L714.1,190.9 L720.3,190.8 L726.8,192.9 L733.8,193.4 L741.1,193.3 L749.0,193.0 L757.4,195.1 L766.4,195.0 L776.2,193.9 L786.9,194.5 L794.0,194.2" fill="none" stroke="#1baf7a" stroke-width="1.4" stroke-linejoin="round" stroke-linecap="round" opacity="0.45"/>
<circle cx="297.1" cy="128.7" r="4.6" fill="#1baf7a"/>
<circle cx="297.1" cy="128.7" r="2.6" fill="#fcfcfb"/>
<path d="M287.5,428.1 L289.2,429.4 L290.7,419.5 L292.4,422.6 L294.0,417.4 L295.5,401.3 L297.1,388.4 L298.6,379.6 L300.2,369.9 L301.9,348.2 L303.4,341.6 L304.9,339.4 L306.7,333.5 L308.2,332.7 L309.8,323.6 L311.4,321.3 L312.9,330.9 L314.5,326.8 L316.2,330.1 L317.7,329.0 L319.2,318.4 L320.9,305.2 L322.5,306.5 L324.0,313.2 L325.6,312.2 L327.2,311.4 L328.9,312.1 L330.3,316.1 L331.9,322.8 L333.6,321.5 L335.1,335.6 L336.6,333.3 L338.4,334.0 L339.9,343.8 L341.5,349.4 L343.0,354.0 L344.6,351.9 L346.2,356.1 L347.9,352.7 L349.3,353.5 L351.0,360.7 L352.7,361.5 L354.1,366.6 L355.6,373.4 L357.3,372.3 L358.8,368.5 L360.4,372.6 L361.9,374.7 L363.8,374.7 L365.4,369.4 L366.6,366.7 L368.3,364.3 L369.9,360.3 L371.6,352.9 L373.3,351.4 L374.7,350.7 L376.4,348.6 L377.8,351.2 L379.6,353.2 L381.0,349.2 L382.5,349.5 L384.4,350.6 L385.9,355.8 L387.4,355.6 L388.9,359.2 L390.5,358.9 L392.1,357.3 L393.7,357.1 L395.3,359.0 L397.0,360.0 L398.7,361.5 L399.9,364.2 L401.7,365.8 L403.4,362.5 L404.7,360.0 L406.5,362.5 L407.9,365.3 L409.7,365.7 L411.1,371.0 L412.6,372.1 L414.5,371.5 L415.9,370.7 L417.4,371.2 L418.9,373.2 L420.9,374.7 L422.5,379.3 L424.0,381.4 L425.6,383.8 L427.2,385.1 L428.8,383.8 L430.5,385.8 L431.6,383.6 L433.3,383.1 L435.0,383.6 L436.7,387.7 L437.9,386.5 L439.7,388.6 L441.5,387.9 L442.7,388.8 L444.5,391.5 L446.4,392.4 L447.7,393.7 L449.0,393.7 L450.9,393.5 L452.2,394.5 L454.2,392.7 L455.6,393.2 L457.0,392.3 L459.1,391.6 L460.5,392.1 L461.9,390.8 L463.4,391.6 L464.8,390.5 L467.1,390.2 L468.6,390.4 L470.1,391.8 L471.7,390.5 L473.3,389.7 L474.8,391.4 L476.5,390.0 L478.1,389.7 L479.8,391.2 L480.6,392.0 L482.3,392.0 L484.0,391.0 L485.8,391.4 L487.6,389.7 L489.4,391.0 L490.3,394.3 L492.1,394.1 L494.0,395.9 L494.9,398.1 L496.9,398.3 L498.8,397.6 L499.8,398.4 L501.8,399.1 L502.8,399.1 L504.9,398.7 L506.9,398.3 L508.0,396.1 L510.1,396.0 L511.2,395.9 L512.3,395.2 L514.6,394.3 L515.7,394.1 L518.0,391.0 L519.1,392.0 L520.3,391.8 L522.7,389.8 L523.9,389.0 L525.1,387.9 L527.6,386.0 L528.9,385.7 L530.1,386.6 L531.4,386.8 L534.0,385.9 L535.4,385.2 L536.7,384.4 L538.1,386.4 L539.5,386.3 L540.8,385.1 L543.7,385.3 L545.1,384.8 L546.6,383.3 L548.1,382.7 L549.6,382.3 L551.1,383.6 L552.6,384.6 L554.2,385.1 L555.8,384.3 L557.4,384.7 L559.0,383.0 L560.6,382.0 L562.3,383.5 L564.0,383.8 L565.7,383.7 L567.5,384.2 L569.2,383.8 L571.0,383.8 L572.8,383.3 L574.7,384.0 L576.6,383.4 L578.5,384.1 L580.4,384.4 L582.4,382.0 L584.4,381.4 L586.4,381.9 L588.5,381.2 L590.6,381.1 L592.8,380.6 L595.0,380.9 L597.2,381.3 L599.5,381.9 L601.8,381.4 L604.2,380.3 L606.6,379.0 L609.1,379.6 L611.6,378.8 L614.1,378.3 L616.8,378.4 L619.5,379.3 L622.2,378.8 L625.0,378.4 L627.9,378.8 L630.9,378.7 L633.9,379.3 L637.0,378.8 L640.2,378.3 L643.5,379.8 L646.9,379.1 L650.4,379.5 L654.0,377.4 L657.7,376.7 L661.5,377.3 L665.4,377.2 L669.5,376.7 L673.7,375.1 L678.1,375.5 L682.6,374.4 L687.4,373.8 L692.3,374.9 L697.4,375.9 L702.8,374.2 L708.4,375.6 L714.3,375.7 L720.5,375.4 L727.1,376.0 L734.1,375.3 L741.4,375.4 L749.3,376.1 L757.7,377.7 L766.8,378.2 L776.6,377.5 L787.3,376.4 L794.0,377.2" fill="none" stroke="#eb6834" stroke-width="1.4" stroke-linejoin="round" stroke-linecap="round" opacity="0.45"/>
<circle cx="287.5" cy="428.1" r="4.6" fill="#eb6834"/>
<circle cx="287.5" cy="428.1" r="2.6" fill="#fcfcfb"/>
<path d="M296.3,180.0 L297.7,164.9 L299.3,153.2 L300.8,148.2 L302.5,165.6 L304.0,157.4 L305.5,153.6 L307.1,147.8 L308.6,148.8 L310.2,161.3 L311.6,167.1 L313.3,173.1 L314.9,171.5 L316.4,169.3 L317.9,168.8 L319.6,164.7 L321.1,170.2 L322.7,169.7 L324.3,169.4 L325.8,165.4 L327.2,164.9 L328.9,172.8 L330.5,180.9 L331.9,164.0 L333.6,157.4 L335.1,158.7 L336.6,158.2 L338.1,163.9 L339.6,162.8 L341.2,166.7 L342.8,171.3 L344.4,171.6 L346.0,170.7 L347.6,177.0 L349.0,175.2 L350.7,171.9 L352.1,172.7 L353.8,181.4 L355.3,186.1 L357.0,181.4 L358.5,182.0 L360.1,184.7 L361.6,184.9 L363.2,183.1 L364.7,182.0 L366.3,181.2 L367.9,184.4 L369.3,188.3 L370.9,193.2 L372.6,199.0 L374.0,195.2 L375.7,191.4 L377.1,190.2 L378.9,190.0 L380.3,191.8 L381.8,192.1 L383.2,192.6 L385.1,194.5 L386.6,193.3 L388.2,193.6 L389.7,193.4 L391.3,195.2 L392.9,193.2 L394.1,194.0 L395.7,192.7 L397.4,192.7 L399.1,192.7 L400.4,191.3 L402.1,196.3 L403.9,196.7 L405.2,197.4 L407.0,196.1 L408.4,197.7 L409.7,198.6 L411.6,202.1 L413.0,204.5 L414.5,207.0 L415.9,206.9 L417.9,206.8 L419.4,207.6 L420.9,209.2 L422.5,210.9 L424.0,209.6 L425.6,211.1 L427.2,208.2 L428.8,206.4 L429.9,206.6 L431.6,205.9 L433.3,207.6 L435.0,205.5 L436.1,204.6 L437.9,205.3 L439.7,206.8 L440.9,207.1 L442.7,207.2 L443.9,207.8 L445.8,206.7 L447.0,206.6 L449.0,208.0 L450.3,207.4 L452.2,203.1 L453.6,204.0 L454.9,204.2 L457.0,201.2 L458.4,199.8 L459.8,200.1 L461.2,203.9 L462.6,203.5 L464.8,204.0 L466.3,201.9 L467.8,200.0 L469.4,200.0 L470.9,199.9 L472.5,201.2 L474.0,200.8 L475.7,199.2 L477.3,198.6 L478.9,197.3 L479.8,198.8 L481.5,199.3 L483.2,195.8 L484.9,195.0 L486.7,195.7 L487.6,195.9 L489.4,195.4 L491.2,195.7 L493.0,194.3 L494.0,194.7 L495.9,193.7 L496.9,193.5 L498.8,192.1 L500.8,191.7 L501.8,192.4 L503.8,195.0 L504.9,196.1 L506.9,194.6 L508.0,194.4 L510.1,194.7 L511.2,196.2 L513.4,195.3 L514.6,195.1 L515.7,193.7 L518.0,199.1 L519.1,199.1 L520.3,198.6 L522.7,198.9 L523.9,200.0 L525.1,200.6 L527.6,203.2 L528.9,202.1 L530.1,201.0 L531.4,200.4 L532.7,199.8 L535.4,202.2 L536.7,202.2 L538.1,202.7 L539.5,202.9 L540.8,200.2 L542.3,200.8 L543.7,201.8 L545.1,202.3 L548.1,202.5 L549.6,201.4 L551.1,200.4 L552.6,199.9 L554.2,201.1 L555.8,201.4 L557.4,199.2 L559.0,200.1 L560.6,201.4 L562.3,203.8 L564.0,204.0 L565.7,205.0 L567.5,204.0 L569.2,204.1 L571.0,204.7 L572.8,204.8 L574.7,205.8 L576.6,206.9 L578.5,207.4 L580.4,206.6 L582.4,206.7 L584.4,207.9 L586.4,206.7 L588.5,207.6 L590.6,206.6 L592.8,205.8 L595.0,205.8 L597.2,205.8 L599.5,206.7 L601.8,204.9 L604.2,205.3 L606.6,205.5 L609.1,204.7 L611.6,204.6 L614.1,204.7 L616.8,205.6 L619.5,207.2 L622.2,206.7 L625.0,205.9 L627.9,208.0 L630.9,208.3 L633.9,208.9 L637.0,207.9 L640.2,206.4 L643.5,206.6 L646.9,205.5 L650.4,204.4 L654.0,206.0 L657.7,205.5 L661.5,205.5 L665.4,204.7 L669.5,205.3 L673.7,204.2 L678.1,204.2 L682.6,205.8 L687.4,205.9 L692.3,205.5 L697.4,206.1 L702.8,207.6 L708.4,207.8 L714.3,207.0 L720.5,206.9 L727.1,207.1 L734.1,205.5 L741.4,205.5 L749.3,207.1 L757.7,208.1 L766.8,207.3 L776.6,207.3 L787.3,207.0 L794.0,207.4" fill="none" stroke="#1baf7a" stroke-width="1.4" stroke-linejoin="round" stroke-linecap="round" opacity="0.45"/>
<circle cx="296.3" cy="180.0" r="4.6" fill="#1baf7a"/>
<circle cx="296.3" cy="180.0" r="2.6" fill="#fcfcfb"/>
<path d="M67.0,231.5 L69.3,234.0 L71.6,187.3 L73.9,200.3 L76.2,208.9 L78.4,207.5 L80.7,211.2 L83.0,210.6 L85.2,187.9 L87.5,190.8 L89.8,184.4 L92.1,185.6 L94.3,185.5 L96.6,178.4 L98.9,181.3 L101.2,177.0 L103.4,173.6 L105.7,169.2 L107.9,180.4 L110.2,187.3 L112.5,190.1 L114.8,194.9 L117.1,201.9 L119.3,194.9 L121.6,191.7 L123.8,189.0 L126.1,191.4 L128.4,192.3 L130.7,193.0 L132.9,195.6 L135.2,194.7 L137.5,196.4 L139.8,198.0 L142.0,198.2 L144.3,200.6 L146.6,201.0 L148.9,199.4 L151.1,198.0 L153.4,197.3 L155.7,200.9 L157.9,201.4 L160.2,200.8 L162.5,200.8 L164.7,201.1 L167.1,201.7 L169.3,201.9 L171.6,203.9 L173.8,203.6 L176.1,203.4 L178.4,204.0 L180.7,203.2 L182.9,203.3 L185.2,202.0 L187.5,202.1 L189.8,200.9 L192.0,199.6 L194.3,197.4 L196.6,197.0 L198.8,194.7 L201.1,194.8 L203.4,194.7 L205.7,194.3 L207.9,193.1 L210.2,194.1 L212.5,194.2 L214.8,192.8 L217.1,191.5 L219.3,191.5 L221.5,192.5 L223.8,192.2 L226.1,193.1 L228.4,193.3 L230.7,192.8 L233.0,192.8 L235.2,193.1 L237.4,194.0 L239.7,193.5 L242.0,194.2 L244.2,194.4 L246.6,195.4 L248.8,196.5 L251.1,197.7 L253.4,197.5 L255.7,199.5 L258.0,199.8 L260.2,201.5 L262.5,200.9 L264.8,200.6 L267.0,199.8 L269.4,199.3 L271.5,200.0 L273.9,200.7 L276.1,201.7 L278.4,202.2 L280.7,202.9 L282.9,203.2 L285.1,202.5 L287.4,202.2 L289.8,203.3 L292.0,203.2 L294.2,202.2 L296.5,202.9 L298.9,202.5 L301.1,203.3 L303.3,203.5 L305.6,203.5 L308.0,203.8 L310.1,203.8 L312.6,203.9 L314.8,204.4 L316.9,204.8 L319.3,205.9 L321.5,206.0 L323.9,206.6 L326.2,206.6 L328.5,206.8 L330.6,206.8 L333.0,206.2 L335.3,206.2 L337.5,205.9 L339.8,206.7 L342.1,205.9 L344.3,205.1 L346.7,204.6 L348.9,205.1 L351.1,204.6 L353.4,204.9 L355.7,204.7 L358.1,203.9 L360.2,203.9 L362.4,204.5 L364.9,205.2 L367.2,205.0 L369.4,205.5 L371.8,205.6 L373.8,205.6 L376.2,205.4 L378.4,205.1 L380.9,204.4 L383.1,204.4 L385.3,204.5 L387.6,204.4 L389.9,204.5 L391.9,204.9 L394.3,204.7 L396.8,204.4 L398.9,204.7 L401.1,205.1 L403.7,205.0 L405.9,205.6 L408.2,205.5 L410.5,205.3 L412.4,205.4 L414.7,205.6 L417.2,205.5 L419.2,205.0 L421.7,204.8 L423.8,204.4 L426.4,204.1 L428.6,203.8 L430.8,204.2 L433.0,203.9 L435.3,204.2 L437.6,204.3 L440.0,204.5 L442.4,205.0 L444.3,205.2 L446.8,205.0 L449.3,205.3 L451.3,205.3 L453.3,205.0 L456.0,204.9 L458.1,204.9 L460.2,205.1 L462.3,205.6 L465.3,205.7 L467.5,205.6 L469.8,206.3 L472.1,206.2 L473.7,206.6 L476.1,206.7 L478.6,206.5 L481.1,206.8 L482.8,206.9 L485.4,206.9 L488.1,206.5 L489.9,206.2 L492.7,206.1 L494.5,206.5 L496.4,206.7 L499.4,206.6 L501.4,206.6 L503.4,207.2 L506.5,206.8 L508.6,206.6 L510.8,206.6 L513.0,206.5 L515.2,206.8 L517.5,206.9 L519.8,206.9 L522.2,207.1 L524.6,206.9 L527.1,207.1 L528.3,207.1 L530.9,207.2 L533.5,207.3 L536.1,207.2 L537.5,206.9 L540.3,207.0 L543.1,207.4 L544.5,207.6 L547.4,207.4 L548.9,207.3 L552.0,207.0 L553.5,207.0 L556.7,207.1 L558.3,207.1 L561.6,206.9 L563.3,207.0 L565.0,206.9 L568.5,206.8 L570.3,206.9 L572.1,207.1 L573.9,207.1 L577.7,207.2 L579.6,207.1 L581.6,207.3 L583.6,207.3 L585.6,207.5 L587.6,207.4 L589.7,207.0 L591.9,206.7 L596.3,206.6 L598.5,206.5 L600.8,206.6 L603.2,206.4 L605.6,206.2 L608.0,206.1 L610.5,206.0 L613.1,206.0 L615.7,205.9 L618.3,205.9 L621.1,205.8 L623.8,205.7 L626.7,205.7 L629.6,205.7 L632.6,205.8 L635.7,205.7 L638.9,205.7 L642.1,205.8 L645.5,205.7 L648.9,205.6 L652.4,205.4 L656.1,205.5 L659.9,205.6 L663.7,205.7 L667.8,205.5 L671.9,205.5 L676.2,205.3 L680.7,205.2 L685.4,205.1 L690.2,204.9 L695.2,204.8 L700.5,205.1 L706.0,204.9 L711.8,204.9 L717.9,204.8 L724.3,205.0 L731.1,205.2 L738.3,205.2 L745.9,205.0 L754.1,205.0 L762.9,204.9 L772.4,204.7 L782.7,204.9 L794.0,204.9" fill="none" stroke="#1baf7a" stroke-width="1.4" stroke-linejoin="round" stroke-linecap="round" opacity="0.45"/>
<circle cx="67.0" cy="231.5" r="4.6" fill="#1baf7a"/>
<circle cx="67.0" cy="231.5" r="2.6" fill="#fcfcfb"/>
<path d="M288.8,241.7 L290.5,234.3 L292.0,238.0 L293.6,235.4 L295.2,225.8 L296.8,217.7 L298.4,229.0 L300.0,235.5 L301.5,245.0 L303.2,237.3 L304.7,245.6 L306.2,255.7 L307.8,257.7 L309.4,277.1 L311.0,277.7 L312.6,294.7 L314.1,303.5 L315.7,313.7 L317.4,310.3 L318.9,302.5 L320.4,308.2 L322.0,319.3 L323.5,318.2 L325.1,310.0 L326.7,304.3 L328.3,304.9 L330.0,303.1 L331.7,303.1 L333.1,307.6 L334.8,309.9 L336.3,305.4 L337.8,297.1 L339.3,305.2 L341.2,308.8 L342.7,306.6 L344.3,307.1 L345.7,307.2 L347.3,304.1 L348.9,309.5 L350.6,307.9 L352.0,307.6 L353.8,309.4 L355.2,309.4 L356.7,309.6 L358.5,308.4 L360.0,306.0 L361.5,305.6 L363.1,308.5 L364.7,305.4 L366.3,306.0 L367.9,301.9 L369.5,309.2 L371.2,309.8 L372.5,313.6 L374.2,314.1 L376.0,315.4 L377.4,313.9 L378.8,314.2 L380.6,316.6 L382.1,316.6 L383.5,313.6 L385.4,313.7 L386.9,309.5 L388.5,304.6 L390.0,305.1 L391.6,306.4 L393.2,305.7 L394.9,303.8 L396.5,311.0 L397.8,308.1 L399.4,300.0 L401.2,301.7 L402.9,301.4 L404.2,308.2 L406.0,307.9 L407.4,308.1 L409.2,304.2 L410.6,306.9 L412.0,305.9 L413.9,303.4 L415.3,304.3 L416.8,306.8 L418.3,310.3 L420.3,309.3 L421.8,310.6 L423.4,311.4 L425.0,313.1 L426.6,314.4 L428.2,315.4 L429.8,315.5 L430.9,316.0 L432.6,314.7 L434.3,315.6 L436.0,319.1 L437.8,318.3 L439.0,320.0 L440.7,317.6 L442.0,316.6 L443.8,315.0 L445.7,317.8 L446.9,317.7 L448.8,318.6 L450.1,318.1 L451.5,316.0 L453.5,319.8 L454.8,319.1 L456.2,320.5 L458.2,322.0 L459.7,325.7 L461.1,325.6 L462.5,324.3 L464.7,325.4 L466.2,328.6 L467.7,330.0 L469.2,328.9 L470.8,329.8 L472.3,329.4 L473.9,330.9 L475.5,331.9 L477.1,335.0 L478.8,331.8 L480.5,331.3 L482.2,332.0 L483.0,331.0 L484.7,333.1 L486.5,333.2 L488.3,332.8 L490.1,334.4 L491.0,333.3 L492.9,332.7 L494.8,334.7 L495.7,332.8 L497.6,334.7 L499.6,335.0 L500.6,334.3 L502.6,333.9 L503.6,333.4 L505.7,331.8 L506.8,333.2 L508.9,334.3 L510.0,334.3 L512.1,334.5 L513.2,333.4 L515.5,335.1 L516.6,333.1 L517.8,332.5 L520.1,334.1 L521.3,333.0 L522.5,334.5 L524.9,335.7 L526.1,336.3 L527.4,337.6 L529.9,336.5 L531.2,336.4 L532.5,335.8 L533.8,335.7 L535.1,335.6 L537.8,334.8 L539.2,335.1 L540.6,334.7 L542.0,337.7 L543.4,338.3 L544.9,337.7 L546.3,337.5 L547.8,337.6 L549.3,337.3 L552.4,337.4 L553.9,336.4 L555.5,335.8 L557.1,336.3 L558.7,335.3 L560.3,333.9 L562.0,334.2 L563.7,334.1 L565.4,334.8 L567.1,334.2 L568.9,333.8 L570.7,334.0 L572.5,332.1 L574.4,332.9 L576.2,332.5 L578.1,333.4 L580.1,334.2 L582.0,332.4 L584.0,332.0 L586.1,332.8 L588.1,331.0 L590.2,331.4 L592.4,330.7 L594.6,331.8 L596.8,332.7 L599.1,332.3 L601.4,334.1 L603.7,334.1 L606.2,333.3 L608.6,332.7 L611.1,332.7 L613.7,333.6 L616.3,334.1 L619.0,332.6 L621.7,332.2 L624.5,331.3 L627.4,330.0 L630.3,328.8 L633.4,329.2 L636.5,329.6 L639.6,328.3 L642.9,327.2 L646.3,328.5 L649.7,331.0 L653.3,330.9 L657.0,329.1 L660.8,328.1 L664.7,328.1 L668.7,325.9 L672.9,327.4 L677.3,328.2 L681.8,328.3 L686.5,327.1 L691.4,325.9 L696.5,325.6 L701.8,326.0 L707.4,326.3 L713.2,325.2 L719.4,325.5 L725.9,327.8 L732.8,328.5 L740.1,329.3 L747.8,329.4 L756.2,329.3 L765.1,329.6 L774.8,328.3 L785.3,327.1 L794.0,326.2" fill="none" stroke="#eb6834" stroke-width="1.4" stroke-linejoin="round" stroke-linecap="round" opacity="0.45"/>
<circle cx="288.8" cy="241.7" r="4.6" fill="#eb6834"/>
<circle cx="288.8" cy="241.7" r="2.6" fill="#fcfcfb"/>
<path d="M67.0,180.9 L69.3,211.9 L71.6,202.5 L73.9,190.0 L76.2,206.5 L78.4,204.7 L80.7,182.6 L83.0,183.6 L85.2,177.7 L87.5,180.0 L89.8,183.5 L92.1,182.6 L94.3,183.0 L96.6,190.2 L98.9,187.3 L101.2,183.3 L103.4,186.6 L105.7,192.1 L107.9,192.1 L110.2,193.2 L112.5,198.0 L114.8,204.4 L117.1,208.0 L119.3,209.7 L121.6,210.1 L123.8,210.1 L126.1,210.4 L128.4,210.8 L130.7,210.8 L132.9,209.4 L135.2,210.9 L137.5,209.9 L139.8,216.5 L142.0,215.8 L144.3,218.1 L146.6,217.9 L148.9,216.7 L151.1,216.6 L153.4,214.6 L155.7,215.2 L157.9,216.0 L160.2,214.5 L162.5,219.4 L164.7,217.8 L167.1,218.5 L169.3,217.9 L171.6,219.3 L173.8,217.0 L176.1,218.3 L178.4,219.8 L180.7,217.9 L182.9,218.3 L185.2,215.4 L187.5,217.1 L189.8,217.7 L192.0,217.6 L194.3,217.6 L196.6,217.2 L198.8,218.4 L201.1,219.8 L203.4,220.4 L205.7,219.3 L207.9,218.1 L210.2,218.4 L212.5,218.3 L214.8,218.5 L217.1,219.0 L219.3,218.3 L221.5,218.7 L223.8,216.7 L226.1,216.3 L228.4,217.1 L230.7,217.4 L233.0,217.5 L235.2,217.2 L237.4,216.4 L239.7,216.5 L242.0,217.3 L244.2,216.6 L246.6,216.0 L248.8,215.3 L251.1,216.9 L253.4,216.3 L255.7,218.0 L258.0,218.6 L260.2,218.5 L262.5,220.0 L264.8,221.0 L267.0,221.2 L269.4,221.0 L271.5,220.9 L273.9,220.2 L276.1,219.2 L278.4,220.0 L280.7,220.0 L282.9,218.9 L285.1,219.5 L287.4,219.5 L289.8,219.3 L292.0,219.5 L294.2,218.8 L296.5,218.6 L298.9,218.4 L301.1,218.9 L303.3,218.7 L305.6,219.9 L308.0,219.8 L310.1,218.8 L312.6,219.2 L314.8,219.1 L316.9,219.3 L319.3,219.0 L321.5,218.9 L323.9,218.6 L326.2,218.7 L328.5,217.7 L330.6,217.8 L333.0,218.3 L335.3,218.3 L337.5,218.3 L339.8,218.5 L342.1,218.2 L344.3,219.2 L346.7,219.3 L348.9,218.5 L351.1,218.3 L353.4,217.7 L355.7,218.2 L358.1,218.1 L360.2,217.9 L362.4,218.5 L364.9,218.3 L367.2,218.0 L369.4,217.7 L371.8,218.2 L373.8,218.6 L376.2,218.2 L378.4,218.4 L380.9,218.7 L383.1,218.5 L385.3,218.3 L387.6,218.5 L389.9,218.3 L391.9,218.0 L394.3,217.9 L396.8,217.8 L398.9,217.8 L401.1,217.7 L403.7,217.5 L405.9,218.1 L408.2,217.4 L410.5,217.7 L412.4,217.8 L414.7,217.7 L417.2,217.4 L419.2,217.0 L421.7,216.9 L423.8,216.6 L426.4,216.6 L428.6,216.6 L430.8,216.4 L433.0,216.5 L435.3,216.0 L437.6,216.5 L440.0,216.4 L442.4,216.6 L444.3,216.9 L446.8,217.0 L449.3,217.3 L451.3,217.1 L453.3,217.3 L456.0,217.2 L458.1,217.4 L460.2,217.3 L462.3,217.0 L465.3,217.4 L467.5,217.7 L469.8,217.5 L472.1,217.3 L473.7,217.2 L476.1,217.5 L478.6,217.9 L481.1,217.6 L482.8,217.5 L485.4,217.5 L488.1,217.9 L489.9,217.9 L492.7,217.3 L494.5,217.3 L496.4,216.9 L499.4,217.3 L501.4,217.1 L503.4,216.6 L506.5,216.8 L508.6,216.1 L510.8,216.4 L513.0,216.6 L515.2,216.7 L517.5,216.6 L519.8,216.8 L522.2,217.1 L524.6,217.0 L527.1,217.1 L528.3,217.5 L530.9,217.1 L533.5,217.0 L536.1,217.2 L537.5,217.1 L540.3,217.1 L543.1,216.9 L544.5,217.0 L547.4,217.0 L548.9,217.1 L552.0,216.7 L553.5,216.6 L556.7,216.9 L558.3,217.0 L561.6,216.6 L563.3,216.6 L565.0,216.8 L568.5,217.1 L570.3,217.1 L572.1,217.1 L573.9,217.0 L577.7,217.1 L579.6,216.9 L581.6,216.8 L583.6,217.0 L585.6,216.9 L587.6,217.0 L589.7,216.8 L591.9,216.8 L596.3,216.8 L598.5,216.7 L600.8,216.8 L603.2,217.3 L605.6,217.4 L608.0,217.6 L610.5,217.9 L613.1,217.7 L615.7,217.8 L618.3,217.6 L621.1,217.7 L623.8,217.8 L626.7,217.8 L629.6,218.0 L632.6,217.9 L635.7,218.1 L638.9,218.2 L642.1,218.0 L645.5,218.0 L648.9,218.0 L652.4,217.9 L656.1,217.7 L659.9,217.9 L663.7,217.9 L667.8,218.3 L671.9,218.3 L676.2,218.0 L680.7,218.2 L685.4,218.4 L690.2,218.5 L695.2,218.3 L700.5,218.5 L706.0,218.6 L711.8,218.7 L717.9,218.8 L724.3,218.6 L731.1,218.6 L738.3,218.5 L745.9,218.3 L754.1,218.2 L762.9,218.1 L772.4,218.1 L782.7,218.1 L794.0,218.1" fill="none" stroke="#eb6834" stroke-width="2.4" stroke-linejoin="round" stroke-linecap="round" opacity="1"/>
<circle cx="67.0" cy="180.9" r="4.6" fill="#eb6834"/>
<circle cx="67.0" cy="180.9" r="2.6" fill="#fcfcfb"/>
<path d="M297.5,175.0 L298.9,175.0 L300.6,170.8 L302.1,164.4 L303.6,169.9 L305.1,169.8 L306.7,160.4 L308.2,161.4 L309.8,157.4 L311.4,162.1 L312.8,166.5 L314.5,159.7 L316.0,155.1 L317.7,145.9 L319.2,146.8 L320.7,158.1 L322.2,154.2 L323.8,155.8 L325.4,159.9 L327.0,161.6 L328.4,170.1 L330.0,180.3 L331.7,185.9 L333.1,185.8 L334.6,183.9 L336.3,185.6 L337.8,179.0 L339.4,180.7 L340.9,180.3 L342.5,180.6 L344.1,179.0 L345.7,176.3 L347.1,179.4 L348.7,181.5 L350.1,181.7 L351.8,179.0 L353.2,180.9 L355.0,182.6 L356.4,185.2 L357.9,183.1 L359.4,175.4 L361.0,169.9 L362.5,173.4 L364.1,176.1 L365.7,177.9 L367.3,176.4 L368.9,176.9 L370.6,173.8 L371.9,177.2 L373.6,174.4 L375.0,177.5 L376.7,172.7 L378.1,172.1 L379.9,169.7 L381.4,171.8 L382.8,172.6 L384.3,172.0 L385.8,172.6 L387.4,170.9 L388.9,175.5 L390.5,173.7 L392.1,172.3 L393.7,172.0 L395.3,168.3 L397.0,164.0 L398.2,162.9 L399.9,163.9 L401.6,163.8 L402.9,160.8 L404.7,164.0 L406.1,164.6 L407.9,165.5 L409.2,165.8 L410.6,167.0 L412.5,164.5 L414.0,165.7 L415.4,167.7 L416.9,169.2 L418.9,167.0 L420.4,169.2 L421.9,167.2 L423.5,165.8 L425.0,167.5 L426.6,167.9 L427.7,167.6 L429.3,167.2 L431.0,166.2 L432.7,166.8 L434.4,166.1 L435.5,165.3 L437.3,165.7 L439.0,166.6 L440.2,166.3 L442.0,166.9 L443.3,167.1 L445.1,165.1 L446.4,164.4 L448.3,162.1 L449.6,161.1 L451.5,160.8 L452.9,161.4 L454.2,159.0 L456.3,159.4 L457.6,159.1 L459.0,157.8 L460.4,159.2 L461.9,162.0 L464.1,162.8 L465.5,161.5 L467.0,159.8 L468.5,159.9 L470.1,158.9 L471.6,158.6 L473.2,159.7 L474.8,160.2 L476.4,159.0 L478.1,157.5 L479.7,156.1 L480.6,158.3 L482.3,154.7 L484.0,156.4 L485.7,154.1 L487.5,154.5 L488.4,153.4 L490.2,151.9 L492.1,152.0 L493.0,152.6 L494.9,152.3 L496.8,152.7 L497.8,152.3 L499.7,150.9 L500.7,151.0 L502.7,152.2 L503.8,152.4 L505.8,156.4 L506.9,154.5 L509.0,154.5 L510.1,156.0 L512.3,156.5 L513.4,156.8 L515.6,154.8 L516.8,154.4 L517.9,155.1 L520.2,154.8 L521.4,155.1 L522.6,155.3 L525.0,153.9 L526.3,154.7 L527.5,155.0 L528.8,157.4 L531.3,158.3 L532.6,156.6 L534.0,155.5 L535.3,155.1 L536.6,155.3 L538.0,155.2 L540.8,157.9 L542.2,157.6 L543.6,157.2 L545.0,156.0 L546.5,157.9 L548.0,159.4 L549.5,159.8 L551.0,161.0 L552.5,160.3 L554.1,160.7 L555.7,161.2 L557.3,159.8 L558.9,159.0 L560.5,159.6 L562.2,159.5 L563.9,158.7 L565.6,158.9 L567.3,158.7 L569.1,157.9 L570.9,157.8 L572.7,156.9 L574.6,157.0 L576.5,158.1 L578.4,157.6 L580.3,155.8 L582.3,157.0 L584.3,156.4 L586.3,156.2 L588.4,155.6 L590.5,155.1 L592.7,155.5 L594.8,155.0 L597.1,156.3 L599.3,157.3 L601.7,157.6 L604.0,158.0 L606.4,158.2 L608.9,157.5 L611.4,158.2 L614.0,157.9 L616.6,158.7 L619.3,158.7 L622.1,159.1 L624.9,158.7 L627.8,158.5 L630.7,159.7 L633.7,158.3 L636.8,158.5 L640.0,158.4 L643.3,156.8 L646.7,157.4 L650.2,156.9 L653.7,157.1 L657.4,156.9 L661.2,156.8 L665.2,156.6 L669.2,155.4 L673.5,154.6 L677.8,155.1 L682.4,154.1 L687.1,154.2 L692.0,155.8 L697.1,155.8 L702.5,155.6 L708.1,156.2 L714.0,156.7 L720.2,157.1 L726.7,157.3 L733.6,157.0 L741.0,156.8 L748.8,156.2 L757.2,154.6 L766.2,154.8 L776.0,154.0 L786.6,154.2 L794.0,154.1" fill="none" stroke="#1baf7a" stroke-width="2.4" stroke-linejoin="round" stroke-linecap="round" opacity="1"/>
<circle cx="297.5" cy="175.0" r="4.6" fill="#1baf7a"/>
<circle cx="297.5" cy="175.0" r="2.6" fill="#fcfcfb"/>
<line x1="794.0" y1="152.6" x2="808.0" y2="149.0" stroke="#1baf7a" stroke-width="0.9" opacity="0.3"/>
<circle cx="794.0" cy="152.6" r="5.0" fill="#fcfcfb"/>
<circle cx="794.0" cy="152.6" r="3.0" fill="#1baf7a"/>
<rect x="808.0" y="130.0" width="71.2" height="38.0" rx="9" fill="#f2f1ed" opacity="1"/>
<rect x="808.0" y="130.0" width="71.2" height="38.0" rx="9" fill="#1baf7a" opacity="0.1"/>
<g transform="translate(828.1,141.0)" opacity="0.55"><path d="M0,-6.4 L0,-2.6 M0,-2.6 L-4.1,1.2 M0,-2.6 L4.1,1.2" fill="none" stroke="#c9c8c2" stroke-linecap="round" stroke-linejoin="round" stroke-width="1.5"/><path d="M-5.8,4.4 L5.8,4.4" fill="none" stroke="#c9c8c2" stroke-linecap="round" stroke-linejoin="round" stroke-width="1.5"/></g>
<g transform="translate(843.1,141.0)" opacity="1"><path d="M-5.8,-4.6 L5.8,-4.6" fill="none" stroke="#1baf7a" stroke-linecap="round" stroke-linejoin="round" stroke-width="1.5"/><path d="M-4.1,-4.4 L-4.1,4.6 M0,-4.4 L0,4.6 M4.1,-4.4 L4.1,4.6" fill="none" stroke="#1baf7a" stroke-linecap="round" stroke-linejoin="round" stroke-width="1.5"/></g>
<g transform="translate(858.1,141.0)" opacity="1"><path d="M-4.1,4.6 L-4.1,1.0" fill="none" stroke="#1baf7a" stroke-linecap="round" stroke-linejoin="round" stroke-width="1.5"/><path d="M0,4.6 L0,-4.6" fill="none" stroke="#1baf7a" stroke-linecap="round" stroke-linejoin="round" stroke-width="1.5"/><path d="M4.1,4.6 L4.1,1.0" fill="none" stroke="#1baf7a" stroke-linecap="round" stroke-linejoin="round" stroke-width="1.5"/><circle cx="0" cy="-6.4" r="1.6" fill="#1baf7a"/></g>
<text x="843.6" y="162.0" fill="#0b0b0b" font-family="ui-monospace, SFMono-Regular, Menlo, monospace" font-size="11" font-weight="600" text-anchor="middle">−13 ± 14</text>
<line x1="794.0" y1="193.9" x2="808.0" y2="191.0" stroke="#1baf7a" stroke-width="0.9" opacity="0.3"/>
<circle cx="794.0" cy="193.9" r="5.0" fill="#fcfcfb"/>
<circle cx="794.0" cy="193.9" r="3.0" fill="#1baf7a"/>
<rect x="808.0" y="172.0" width="71.2" height="38.0" rx="9" fill="#f2f1ed" opacity="1"/>
<rect x="808.0" y="172.0" width="71.2" height="38.0" rx="9" fill="#1baf7a" opacity="0.1"/>
<g transform="translate(828.1,183.0)" opacity="1"><path d="M0,-6.4 L0,-2.6 M0,-2.6 L-4.1,1.2 M0,-2.6 L4.1,1.2" fill="none" stroke="#1baf7a" stroke-linecap="round" stroke-linejoin="round" stroke-width="1.5"/><path d="M-5.8,4.4 L5.8,4.4" fill="none" stroke="#1baf7a" stroke-linecap="round" stroke-linejoin="round" stroke-width="1.5"/></g>
<g transform="translate(843.1,183.0)" opacity="0.55"><path d="M-5.8,-4.6 L5.8,-4.6" fill="none" stroke="#c9c8c2" stroke-linecap="round" stroke-linejoin="round" stroke-width="1.5"/><path d="M-4.1,-4.4 L-4.1,4.6 M0,-4.4 L0,4.6 M4.1,-4.4 L4.1,4.6" fill="none" stroke="#c9c8c2" stroke-linecap="round" stroke-linejoin="round" stroke-width="1.5"/></g>
<g transform="translate(858.1,183.0)" opacity="1"><path d="M-4.1,4.6 L-4.1,1.0" fill="none" stroke="#1baf7a" stroke-linecap="round" stroke-linejoin="round" stroke-width="1.5"/><path d="M0,4.6 L0,-4.6" fill="none" stroke="#1baf7a" stroke-linecap="round" stroke-linejoin="round" stroke-width="1.5"/><path d="M4.1,4.6 L4.1,1.0" fill="none" stroke="#1baf7a" stroke-linecap="round" stroke-linejoin="round" stroke-width="1.5"/><circle cx="0" cy="-6.4" r="1.6" fill="#1baf7a"/></g>
<text x="843.6" y="204.0" fill="#8a8983" font-family="ui-monospace, SFMono-Regular, Menlo, monospace" font-size="11" font-weight="400" text-anchor="middle">−25 ± 14</text>
<line x1="794.0" y1="204.2" x2="808.0" y2="233.0" stroke="#1baf7a" stroke-width="0.9" opacity="0.3"/>
<circle cx="794.0" cy="204.2" r="5.0" fill="#fcfcfb"/>
<circle cx="794.0" cy="204.2" r="3.0" fill="#1baf7a"/>
<rect x="808.0" y="214.0" width="71.2" height="38.0" rx="9" fill="#f2f1ed" opacity="1"/>
<rect x="808.0" y="214.0" width="71.2" height="38.0" rx="9" fill="#1baf7a" opacity="0.1"/>
<g transform="translate(828.1,225.0)" opacity="0.55"><path d="M0,-6.4 L0,-2.6 M0,-2.6 L-4.1,1.2 M0,-2.6 L4.1,1.2" fill="none" stroke="#c9c8c2" stroke-linecap="round" stroke-linejoin="round" stroke-width="1.5"/><path d="M-5.8,4.4 L5.8,4.4" fill="none" stroke="#c9c8c2" stroke-linecap="round" stroke-linejoin="round" stroke-width="1.5"/></g>
<g transform="translate(843.1,225.0)" opacity="0.55"><path d="M-5.8,-4.6 L5.8,-4.6" fill="none" stroke="#c9c8c2" stroke-linecap="round" stroke-linejoin="round" stroke-width="1.5"/><path d="M-4.1,-4.4 L-4.1,4.6 M0,-4.4 L0,4.6 M4.1,-4.4 L4.1,4.6" fill="none" stroke="#c9c8c2" stroke-linecap="round" stroke-linejoin="round" stroke-width="1.5"/></g>
<g transform="translate(858.1,225.0)" opacity="1"><path d="M-4.1,4.6 L-4.1,1.0" fill="none" stroke="#1baf7a" stroke-linecap="round" stroke-linejoin="round" stroke-width="1.5"/><path d="M0,4.6 L0,-4.6" fill="none" stroke="#1baf7a" stroke-linecap="round" stroke-linejoin="round" stroke-width="1.5"/><path d="M4.1,4.6 L4.1,1.0" fill="none" stroke="#1baf7a" stroke-linecap="round" stroke-linejoin="round" stroke-width="1.5"/><circle cx="0" cy="-6.4" r="1.6" fill="#1baf7a"/></g>
<text x="843.6" y="246.0" fill="#8a8983" font-family="ui-monospace, SFMono-Regular, Menlo, monospace" font-size="11" font-weight="400" text-anchor="middle">−28 ±  6</text>
<line x1="794.0" y1="204.4" x2="808.0" y2="275.0" stroke="#1baf7a" stroke-width="0.9" opacity="0.3"/>
<circle cx="794.0" cy="204.4" r="5.0" fill="#fcfcfb"/>
<circle cx="794.0" cy="204.4" r="3.0" fill="#1baf7a"/>
<rect x="808.0" y="256.0" width="71.2" height="38.0" rx="9" fill="#f2f1ed" opacity="1"/>
<rect x="808.0" y="256.0" width="71.2" height="38.0" rx="9" fill="#1baf7a" opacity="0.1"/>
<g transform="translate(828.1,267.0)" opacity="1"><path d="M0,-6.4 L0,-2.6 M0,-2.6 L-4.1,1.2 M0,-2.6 L4.1,1.2" fill="none" stroke="#1baf7a" stroke-linecap="round" stroke-linejoin="round" stroke-width="1.5"/><path d="M-5.8,4.4 L5.8,4.4" fill="none" stroke="#1baf7a" stroke-linecap="round" stroke-linejoin="round" stroke-width="1.5"/></g>
<g transform="translate(843.1,267.0)" opacity="1"><path d="M-5.8,-4.6 L5.8,-4.6" fill="none" stroke="#1baf7a" stroke-linecap="round" stroke-linejoin="round" stroke-width="1.5"/><path d="M-4.1,-4.4 L-4.1,4.6 M0,-4.4 L0,4.6 M4.1,-4.4 L4.1,4.6" fill="none" stroke="#1baf7a" stroke-linecap="round" stroke-linejoin="round" stroke-width="1.5"/></g>
<g transform="translate(858.1,267.0)" opacity="1"><path d="M-4.1,4.6 L-4.1,1.0" fill="none" stroke="#1baf7a" stroke-linecap="round" stroke-linejoin="round" stroke-width="1.5"/><path d="M0,4.6 L0,-4.6" fill="none" stroke="#1baf7a" stroke-linecap="round" stroke-linejoin="round" stroke-width="1.5"/><path d="M4.1,4.6 L4.1,1.0" fill="none" stroke="#1baf7a" stroke-linecap="round" stroke-linejoin="round" stroke-width="1.5"/><circle cx="0" cy="-6.4" r="1.6" fill="#1baf7a"/></g>
<text x="843.6" y="288.0" fill="#8a8983" font-family="ui-monospace, SFMono-Regular, Menlo, monospace" font-size="11" font-weight="400" text-anchor="middle">−28 ± 14</text>
<line x1="794.0" y1="217.8" x2="808.0" y2="317.0" stroke="#eb6834" stroke-width="0.9" opacity="0.3"/>
<circle cx="794.0" cy="217.8" r="5.0" fill="#fcfcfb"/>
<circle cx="794.0" cy="217.8" r="3.0" fill="#eb6834"/>
<rect x="808.0" y="298.0" width="71.2" height="38.0" rx="9" fill="#f2f1ed" opacity="1"/>
<rect x="808.0" y="298.0" width="71.2" height="38.0" rx="9" fill="#eb6834" opacity="0.1"/>
<g transform="translate(828.1,309.0)" opacity="0.55"><path d="M0,-6.4 L0,-2.6 M0,-2.6 L-4.1,1.2 M0,-2.6 L4.1,1.2" fill="none" stroke="#c9c8c2" stroke-linecap="round" stroke-linejoin="round" stroke-width="1.5"/><path d="M-5.8,4.4 L5.8,4.4" fill="none" stroke="#c9c8c2" stroke-linecap="round" stroke-linejoin="round" stroke-width="1.5"/></g>
<g transform="translate(843.1,309.0)" opacity="0.55"><path d="M-5.8,-4.6 L5.8,-4.6" fill="none" stroke="#c9c8c2" stroke-linecap="round" stroke-linejoin="round" stroke-width="1.5"/><path d="M-4.1,-4.4 L-4.1,4.6 M0,-4.4 L0,4.6 M4.1,-4.4 L4.1,4.6" fill="none" stroke="#c9c8c2" stroke-linecap="round" stroke-linejoin="round" stroke-width="1.5"/></g>
<g transform="translate(858.1,309.0)" opacity="0.55"><path d="M-4.1,4.6 L-4.1,1.0" fill="none" stroke="#c9c8c2" stroke-linecap="round" stroke-linejoin="round" stroke-width="1.5"/><path d="M0,4.6 L0,-4.6" fill="none" stroke="#c9c8c2" stroke-linecap="round" stroke-linejoin="round" stroke-width="1.5"/><path d="M4.1,4.6 L4.1,1.0" fill="none" stroke="#c9c8c2" stroke-linecap="round" stroke-linejoin="round" stroke-width="1.5"/><circle cx="0" cy="-6.4" r="1.6" fill="#c9c8c2"/></g>
<text x="843.6" y="330.0" fill="#0b0b0b" font-family="ui-monospace, SFMono-Regular, Menlo, monospace" font-size="11" font-weight="600" text-anchor="middle">−32 ±  6</text>
<line x1="794.0" y1="326.2" x2="808.0" y2="359.0" stroke="#eb6834" stroke-width="0.9" opacity="0.3"/>
<circle cx="794.0" cy="326.2" r="5.0" fill="#fcfcfb"/>
<circle cx="794.0" cy="326.2" r="3.0" fill="#eb6834"/>
<rect x="808.0" y="340.0" width="71.2" height="38.0" rx="9" fill="#f2f1ed" opacity="1"/>
<rect x="808.0" y="340.0" width="71.2" height="38.0" rx="9" fill="#eb6834" opacity="0.1"/>
<g transform="translate(828.1,351.0)" opacity="0.55"><path d="M0,-6.4 L0,-2.6 M0,-2.6 L-4.1,1.2 M0,-2.6 L4.1,1.2" fill="none" stroke="#c9c8c2" stroke-linecap="round" stroke-linejoin="round" stroke-width="1.5"/><path d="M-5.8,4.4 L5.8,4.4" fill="none" stroke="#c9c8c2" stroke-linecap="round" stroke-linejoin="round" stroke-width="1.5"/></g>
<g transform="translate(843.1,351.0)" opacity="1"><path d="M-5.8,-4.6 L5.8,-4.6" fill="none" stroke="#eb6834" stroke-linecap="round" stroke-linejoin="round" stroke-width="1.5"/><path d="M-4.1,-4.4 L-4.1,4.6 M0,-4.4 L0,4.6 M4.1,-4.4 L4.1,4.6" fill="none" stroke="#eb6834" stroke-linecap="round" stroke-linejoin="round" stroke-width="1.5"/></g>
<g transform="translate(858.1,351.0)" opacity="0.55"><path d="M-4.1,4.6 L-4.1,1.0" fill="none" stroke="#c9c8c2" stroke-linecap="round" stroke-linejoin="round" stroke-width="1.5"/><path d="M0,4.6 L0,-4.6" fill="none" stroke="#c9c8c2" stroke-linecap="round" stroke-linejoin="round" stroke-width="1.5"/><path d="M4.1,4.6 L4.1,1.0" fill="none" stroke="#c9c8c2" stroke-linecap="round" stroke-linejoin="round" stroke-width="1.5"/><circle cx="0" cy="-6.4" r="1.6" fill="#c9c8c2"/></g>
<text x="843.6" y="372.0" fill="#8a8983" font-family="ui-monospace, SFMono-Regular, Menlo, monospace" font-size="11" font-weight="400" text-anchor="middle">−64 ± 17</text>
<line x1="794.0" y1="370.6" x2="808.0" y2="401.0" stroke="#eb6834" stroke-width="0.9" opacity="0.3"/>
<circle cx="794.0" cy="370.6" r="5.0" fill="#fcfcfb"/>
<circle cx="794.0" cy="370.6" r="3.0" fill="#eb6834"/>
<rect x="808.0" y="382.0" width="71.2" height="38.0" rx="9" fill="#f2f1ed" opacity="1"/>
<rect x="808.0" y="382.0" width="71.2" height="38.0" rx="9" fill="#eb6834" opacity="0.1"/>
<g transform="translate(828.1,393.0)" opacity="1"><path d="M0,-6.4 L0,-2.6 M0,-2.6 L-4.1,1.2 M0,-2.6 L4.1,1.2" fill="none" stroke="#eb6834" stroke-linecap="round" stroke-linejoin="round" stroke-width="1.5"/><path d="M-5.8,4.4 L5.8,4.4" fill="none" stroke="#eb6834" stroke-linecap="round" stroke-linejoin="round" stroke-width="1.5"/></g>
<g transform="translate(843.1,393.0)" opacity="0.55"><path d="M-5.8,-4.6 L5.8,-4.6" fill="none" stroke="#c9c8c2" stroke-linecap="round" stroke-linejoin="round" stroke-width="1.5"/><path d="M-4.1,-4.4 L-4.1,4.6 M0,-4.4 L0,4.6 M4.1,-4.4 L4.1,4.6" fill="none" stroke="#c9c8c2" stroke-linecap="round" stroke-linejoin="round" stroke-width="1.5"/></g>
<g transform="translate(858.1,393.0)" opacity="0.55"><path d="M-4.1,4.6 L-4.1,1.0" fill="none" stroke="#c9c8c2" stroke-linecap="round" stroke-linejoin="round" stroke-width="1.5"/><path d="M0,4.6 L0,-4.6" fill="none" stroke="#c9c8c2" stroke-linecap="round" stroke-linejoin="round" stroke-width="1.5"/><path d="M4.1,4.6 L4.1,1.0" fill="none" stroke="#c9c8c2" stroke-linecap="round" stroke-linejoin="round" stroke-width="1.5"/><circle cx="0" cy="-6.4" r="1.6" fill="#c9c8c2"/></g>
<text x="843.6" y="414.0" fill="#8a8983" font-family="ui-monospace, SFMono-Regular, Menlo, monospace" font-size="11" font-weight="400" text-anchor="middle">−77 ± 18</text>
<line x1="794.0" y1="377.6" x2="808.0" y2="443.0" stroke="#eb6834" stroke-width="0.9" opacity="0.3"/>
<circle cx="794.0" cy="377.6" r="5.0" fill="#fcfcfb"/>
<circle cx="794.0" cy="377.6" r="3.0" fill="#eb6834"/>
<rect x="808.0" y="424.0" width="71.2" height="38.0" rx="9" fill="#f2f1ed" opacity="1"/>
<rect x="808.0" y="424.0" width="71.2" height="38.0" rx="9" fill="#eb6834" opacity="0.1"/>
<g transform="translate(828.1,435.0)" opacity="1"><path d="M0,-6.4 L0,-2.6 M0,-2.6 L-4.1,1.2 M0,-2.6 L4.1,1.2" fill="none" stroke="#eb6834" stroke-linecap="round" stroke-linejoin="round" stroke-width="1.5"/><path d="M-5.8,4.4 L5.8,4.4" fill="none" stroke="#eb6834" stroke-linecap="round" stroke-linejoin="round" stroke-width="1.5"/></g>
<g transform="translate(843.1,435.0)" opacity="1"><path d="M-5.8,-4.6 L5.8,-4.6" fill="none" stroke="#eb6834" stroke-linecap="round" stroke-linejoin="round" stroke-width="1.5"/><path d="M-4.1,-4.4 L-4.1,4.6 M0,-4.4 L0,4.6 M4.1,-4.4 L4.1,4.6" fill="none" stroke="#eb6834" stroke-linecap="round" stroke-linejoin="round" stroke-width="1.5"/></g>
<g transform="translate(858.1,435.0)" opacity="0.55"><path d="M-4.1,4.6 L-4.1,1.0" fill="none" stroke="#c9c8c2" stroke-linecap="round" stroke-linejoin="round" stroke-width="1.5"/><path d="M0,4.6 L0,-4.6" fill="none" stroke="#c9c8c2" stroke-linecap="round" stroke-linejoin="round" stroke-width="1.5"/><path d="M4.1,4.6 L4.1,1.0" fill="none" stroke="#c9c8c2" stroke-linecap="round" stroke-linejoin="round" stroke-width="1.5"/><circle cx="0" cy="-6.4" r="1.6" fill="#c9c8c2"/></g>
<text x="843.6" y="456.0" fill="#8a8983" font-family="ui-monospace, SFMono-Regular, Menlo, monospace" font-size="11" font-weight="400" text-anchor="middle">−80 ± 17</text>
</svg>
